<svg xmlns="http://www.w3.org/2000/svg" width="18.002" height="18" viewBox="0 0 18.002 18">
                <g id="Group_6912" data-name="Group 6912" transform="translate(-1390.598 -43.588)">
                  <path id="Path_7543" data-name="Path 7543"
                    d="M1399.577,61.588a9,9,0,1,1,9.024-8.895A9,9,0,0,1,1399.577,61.588Zm-7.7-8.994a7.725,7.725,0,1,0,7.867-7.73A7.72,7.72,0,0,0,1391.875,52.594Z"
                    transform="translate(0 0)" fill="#666"></path>
                  <path id="Path_7544" data-name="Path 7544"
                    d="M1475.486,187.383c.54-.559,1.029-1.082,1.536-1.588q2.114-2.106,4.244-4.194a.953.953,0,0,1,.463-.241.56.56,0,0,1,.611.327.642.642,0,0,1-.088.713c-.039.046-.084.087-.127.129l-5.841,5.78c-.109.108-.215.22-.322.331a.639.639,0,0,1-.96.017q-1.676-1.677-3.349-3.357a.639.639,0,1,1,.907-.892q1.365,1.362,2.727,2.728C1475.345,187.194,1475.389,187.262,1475.486,187.383Z"
                    transform="translate(-77.579 -132.223)" fill="#666"></path>
                </g>
              </svg>